# File created by Blade
# Date/Time:  Tue Jan 27 17:27:44 2015
#---------------------------------------------------------
:version 1.10
:name HOM
:units
  mass 1.0
  length 1.000000
  angle deg
:documentation
     Acclaim Skeleton File
:root
   axis xyz
   order TX TY TZ RX RY RZ
   position 0.000000 0.000000 0.000000
   orientation 0 0 0
:bonedata
   begin
      id 1
      name Spine_dum
      direction 0.000000 1.000000 0.000000
      length 7.539951
      axis 0.0 0.0 0.0 xyz
   end
   begin
      id 2
      name LeftUpLeg_dum
      direction 1.000000 0.000000 0.000000
      length 3.345476
      axis 0.0 0.0 0.0 xyz
   end
   begin
      id 3
      name RightUpLeg_dum
      direction -1.000000 0.000000 0.000000
      length 3.345476
      axis 0.0 0.0 0.0 xyz
   end
   begin
      id 4
      name Spine
      direction 0.000000 1.000000 0.000000
      length 0.000000
      axis 0.0 0.0 0.0 xyz
      dof rx ry rz
   end
   begin
      id 5
      name Spine_dum1
      direction 0.000000 1.000000 0.000000
      length 15.093809
      axis 0.0 0.0 0.0 xyz
   end
   begin
      id 6
      name Spine_dum2
      direction 0.000000 1.000000 0.000000
      length 9.738928
      axis 0.0 0.0 0.0 xyz
   end
   begin
      id 7
      name Spine_dum3
      direction 0.000000 1.000000 0.000000
      length 9.738928
      axis 0.0 0.0 0.0 xyz
   end
   begin
      id 8
      name Head
      direction 0.000000 1.000000 0.000000
      length 4.527550
      axis 0.0 0.0 0.0 xyz
      dof rx ry rz
   end
   begin
      id 9
      name LeftShoulder
      direction 1.000000 0.000000 0.000000
      length 7.084015
      axis 0.0 0.0 -90.0 xyz
      dof rx ry rz
   end
   begin
      id 10
      name LeftArm
      direction 1.000000 0.000000 0.000000
      length 10.259319
      axis 0.0 0.0 -90.0 xyz
      dof rx ry rz
   end
   begin
      id 11
      name LeftForeArm
      direction 1.000000 0.000000 0.000000
      length 9.896984
      axis 0.0 0.0 -90.0 xyz
      dof ry rz rx
   end
   begin
      id 12
      name LeftHand
      direction 0.000000 0.000000 0.000000
      length 0.000000
      axis 0.0 0.0 -90.0 xyz
      dof rx ry rz
   end
   begin
      id 13
      name LeftHand_dum1
      direction 0.000000 0.000000 0.000000
      length 0.000000
      axis 0.0 0.0 -90.0 xyz
   end
   begin
      id 14
      name LeftHand_dum2
      direction 1.000000 0.000000 0.000000
      length 3.937000
      axis 0.0 0.0 -90.0 xyz
   end
   begin
      id 15
      name LeftHandThumb1
      direction 0.000000 0.000000 1.000000
      length 3.937000
      axis 0.0 0.0 -90.0 xyz
      dof rx rz ry
   end
   begin
      id 16
      name RightShoulder
      direction -1.000000 0.000000 0.000000
      length 7.084015
      axis 0.0 0.0 90.0 xyz
      dof rx ry rz
   end
   begin
      id 17
      name RightArm
      direction -1.000000 0.000000 0.000000
      length 10.259319
      axis 0.0 0.0 90.0 xyz
      dof rx ry rz
   end
   begin
      id 18
      name RightForeArm
      direction -1.000000 0.000000 0.000000
      length 9.896984
      axis 0.0 0.0 90.0 xyz
      dof ry rz rx
   end
   begin
      id 19
      name RightHand
      direction 0.000000 0.000000 0.000000
      length 0.000000
      axis 0.0 0.0 90.0 xyz
      dof rx ry rz
   end
   begin
      id 20
      name RightHand_dum1
      direction 0.000000 0.000000 0.000000
      length 0.000000
      axis 0.0 0.0 90.0 xyz
   end
   begin
      id 21
      name RightHand_dum2
      direction -1.000000 0.000000 0.000000
      length 3.937000
      axis 0.0 0.0 90.0 xyz
   end
   begin
      id 22
      name RightHandThumb1
      direction 0.000000 0.000000 1.000000
      length 3.937000
      axis 0.0 0.0 90.0 xyz
      dof rx rz ry
   end
   begin
      id 23
      name LeftUpLeg
      direction 0.000000 -1.000000 0.000000
      length 19.114733
      axis 0.0 0.0 0.0 xyz
      dof rx ry rz
   end
   begin
      id 24
      name LeftLeg
      direction 0.000000 -1.000000 0.000000
      length 16.045604
      axis 0.0 0.0 0.0 xyz
      dof rx ry rz
   end
   begin
      id 25
      name LeftFoot
      direction 0.000000 -0.258819 0.965926
      length 5.543155
      axis 15.0 0.0 0.0 xyz
      dof rx ry rz
   end
   begin
      id 26
      name LeftToeBase
      direction 0.000000 0.000000 1.000000
      length 2.952750
      axis 0.0 0.0 0.0 xyz
      dof rx ry rz
   end
   begin
      id 27
      name RightUpLeg
      direction 0.000000 -1.000000 0.000000
      length 19.114733
      axis 0.0 0.0 0.0 xyz
      dof rx ry rz
   end
   begin
      id 28
      name RightLeg
      direction 0.000000 -1.000000 0.000000
      length 16.045604
      axis 0.0 0.0 0.0 xyz
      dof rx ry rz
   end
   begin
      id 29
      name RightFoot
      direction 0.000000 -0.258819 0.965926
      length 5.543155
      axis 15.0 0.0 0.0 xyz
      dof rx ry rz
   end
   begin
      id 30
      name RightToeBase
      direction 0.000000 0.000000 1.000000
      length 2.952750
      axis 0.0 0.0 0.0 xyz
      dof rx ry rz
   end
:hierarchy
   begin
      root Spine_dum LeftUpLeg_dum RightUpLeg_dum
      Spine_dum Spine
      LeftUpLeg_dum LeftUpLeg
      RightUpLeg_dum RightUpLeg
      Spine Spine_dum1 Spine_dum2 Spine_dum3
      Spine_dum1 Head
      Spine_dum2 LeftShoulder
      Spine_dum3 RightShoulder
      LeftShoulder LeftArm
      LeftArm LeftForeArm
      LeftForeArm LeftHand
      LeftHand LeftHand_dum1 LeftHand_dum2
      LeftHand_dum1 LeftHandThumb1
      RightShoulder RightArm
      RightArm RightForeArm
      RightForeArm RightHand
      RightHand RightHand_dum1 RightHand_dum2
      RightHand_dum1 RightHandThumb1
      LeftUpLeg LeftLeg
      LeftLeg LeftFoot
      LeftFoot LeftToeBase
      RightUpLeg RightLeg
      RightLeg RightFoot
      RightFoot RightToeBase
   end

# File created by Blade
# Date/Time:  Tue Jan 27 17:27:32 2015
# Frame Rate: 120.000 fps
#------------------------------------------------------
:FULLY-SPECIFIED
:DEGREES
620
root 4.374053 37.482853 0.246484 6.483771 39.628908 -10.577366
Spine -4.016086 0.229985 8.843087
Head 5.640857 -11.707959 6.431064
LeftShoulder -4.062700 -9.571383 8.596959
LeftArm 1.624291 -14.209808 -58.441671
LeftForeArm 6.814656 -0.000000 106.008525
LeftHand -14.502657 -0.000000 35.088434
LeftHandThumb1 -26.253704 0.000000 33.147579
RightShoulder -9.474262 -20.813368 1.216596
RightArm 14.020448 -24.900270 59.156562
RightForeArm 184.306841 -0.000000 27.068286
RightHand 1.097409 0.000000 -0.600131
RightHandThumb1 -24.326973 -0.000000 -32.862282
LeftUpLeg -16.015068 -11.858775 8.256036
LeftLeg 8.865760 -0.000000 -0.000000
LeftFoot -8.569464 -17.006124 -10.536307
LeftToeBase 13.979063 -0.000000 -0.000000
RightUpLeg -37.591704 13.792169 -5.608235
RightLeg 126.713601 -0.000000 -0.000000
RightFoot -3.342618 5.065175 2.791938
RightToeBase 0.186337 -0.000000 -0.000000
621
root 4.380340 37.477740 0.247527 6.569601 39.662084 -10.466938
Spine -4.010406 0.267271 8.695549
Head 5.632666 -11.699008 6.353452
LeftShoulder -4.095741 -9.561043 8.666319
LeftArm 1.797878 -14.238928 -58.562902
LeftForeArm 7.101412 -0.000000 105.889029
LeftHand -14.601205 -0.000000 35.434224
LeftHandThumb1 -26.253704 0.000000 33.147579
RightShoulder -9.501305 -20.827321 1.251782
RightArm 14.046929 -24.931702 59.157933
RightForeArm 184.298112 -0.000000 27.160277
RightHand 1.083015 0.000000 -0.734880
RightHandThumb1 -24.326973 -0.000000 -32.862282
LeftUpLeg -16.020927 -11.837168 8.165587
LeftLeg 8.847707 -0.000000 -0.000000
LeftFoot -8.534190 -17.126479 -10.593022
LeftToeBase 14.044511 -0.000000 -0.000000
RightUpLeg -37.443216 13.835826 -5.586545
RightLeg 126.777534 -0.000000 -0.000000
RightFoot -3.332080 5.319947 2.560024
RightToeBase 0.226272 -0.000000 -0.000000
622
root 4.386167 37.473920 0.246824 6.664030 39.717809 -10.382337
Spine -4.037510 0.270908 8.591557
Head 5.591218 -11.669497 6.295445
LeftShoulder -4.115328 -9.597699 8.675601
LeftArm 1.813906 -14.265534 -58.588250
LeftForeArm 7.167021 0.000000 105.904046
LeftHand -14.572734 -0.000000 35.281070
LeftHandThumb1 -26.253704 0.000000 33.147579
RightShoulder -9.489518 -20.824427 1.248241
RightArm 14.040628 -24.975566 59.172038
RightForeArm 184.321161 -0.000000 27.257482
RightHand 1.066772 -0.000000 -0.798441
RightHandThumb1 -24.326973 -0.000000 -32.862282
LeftUpLeg -16.051664 -11.864379 8.111351
LeftLeg 8.808271 -0.000000 -0.000000
LeftFoot -8.493215 -17.214108 -10.692115
LeftToeBase 14.182954 -0.000000 -0.000000
RightUpLeg -37.302464 13.822150 -5.547347
RightLeg 126.869177 -0.000000 -0.000000
RightFoot -3.302581 5.646970 2.542066
RightToeBase 0.238212 -0.000000 -0.000000
623
root 4.392992 37.469283 0.246668 6.767488 39.749818 -10.275583
Spine -4.060174 0.295890 8.459761
Head 5.551699 -11.577770 6.233658
LeftShoulder -4.116440 -9.616764 8.625269
LeftArm 1.851089 -14.366343 -58.566320
LeftForeArm 7.116989 0.000000 105.973406
LeftHand -14.574078 -0.000000 35.190293
LeftHandThumb1 -26.253704 0.000000 33.147579
RightShoulder -9.472660 -20.820836 1.245502
RightArm 14.025612 -25.029800 59.186317
RightForeArm 184.338676 0.000000 27.359347
RightHand 1.024207 -0.000000 -0.705451
RightHandThumb1 -24.326973 -0.000000 -32.862282
LeftUpLeg -16.057388 -11.894964 8.039194
LeftLeg 8.738438 -0.000000 -0.000000
LeftFoot -8.463606 -17.268700 -10.757991
LeftToeBase 14.321063 -0.000000 -0.000000
RightUpLeg -37.170719 13.792905 -5.492958
RightLeg 126.988540 -0.000000 -0.000000
RightFoot -3.254616 5.915334 2.249103
RightToeBase -0.162964 -0.000000 0.000000
624
root 4.398370 37.465882 0.245692 6.854282 39.764647 -10.183706
Spine -4.070096 0.336338 8.342591
Head 5.559474 -11.584622 6.139198
LeftShoulder -4.109192 -9.622407 8.620907
LeftArm 1.853977 -14.427166 -58.555253
LeftForeArm 7.107301 -0.000000 106.023059
LeftHand -14.586806 0.000000 35.090373
LeftHandThumb1 -26.253704 0.000000 33.147579
RightShoulder -9.475525 -20.855901 1.240989
RightArm 14.105607 -25.112545 59.153432
RightForeArm 184.419227 -0.000000 27.427841
RightHand 0.987017 -0.000000 -0.633604
RightHandThumb1 -24.326973 -0.000000 -32.862282
LeftUpLeg -16.048125 -11.929992 7.978857
LeftLeg 8.657382 -0.000000 -0.000000
LeftFoot -8.420560 -17.294272 -10.806765
LeftToeBase 14.384623 -0.000000 -0.000000
RightUpLeg -37.042596 13.732848 -5.430591
RightLeg 127.131397 -0.000000 -0.000000
RightFoot -3.149213 6.062519 2.266936
RightToeBase -0.271183 -0.000000 0.000000
625
root 4.405014 37.461988 0.244720 6.918193 39.763390 -10.080050
Spine -4.039800 0.406714 8.205994
Head 5.519787 -11.545992 6.100647
LeftShoulder -4.079611 -9.627195 8.644150
LeftArm 1.853241 -14.443772 -58.555108
LeftForeArm 7.137650 -0.000000 106.063901
LeftHand -14.574733 -0.000000 35.111231
LeftHandThumb1 -26.253704 0.000000 33.147579
RightShoulder -9.463699 -20.880047 1.243132
RightArm 14.141692 -25.118711 59.152171
RightForeArm 184.459228 -0.000000 27.529262
RightHand 0.993382 -0.000000 -0.665326
RightHandThumb1 -24.326973 -0.000000 -32.862282
LeftUpLeg -16.002242 -11.904049 7.881540
LeftLeg 8.586504 -0.000000 -0.000000
LeftFoot -8.379283 -17.356648 -10.568563
LeftToeBase 14.036122 -0.000000 -0.000000
RightUpLeg -36.884153 13.671641 -5.368510
RightLeg 127.289018 -0.000000 -0.000000
RightFoot -3.019664 6.276654 2.497288
RightToeBase 0.000266 -0.000000 -0.000000
626
root 4.413081 37.459499 0.245159 6.975765 39.774802 -9.998519
Spine -4.012688 0.458621 8.103170
Head 5.479768 -11.531218 5.999457
LeftShoulder -4.088832 -9.646158 8.655945
LeftArm 1.857671 -14.420758 -58.550966
LeftForeArm 7.125775 -0.000000 106.119119
LeftHand -14.569221 -0.000000 35.274051
LeftHandThumb1 -26.253704 0.000000 33.147579
RightShoulder -9.454017 -20.880677 1.236779
RightArm 14.154235 -25.098324 59.156169
RightForeArm 184.431185 -0.000000 27.631531
RightHand 1.007731 -0.000000 -0.679992
RightHandThumb1 -24.326973 -0.000000 -32.862282
LeftUpLeg -15.952113 -11.951445 7.822715
LeftLeg 8.476378 -0.000000 -0.000000
LeftFoot -8.326119 -17.365991 -10.588744
LeftToeBase 14.009825 -0.000000 -0.000000
RightUpLeg -36.718688 13.560966 -5.267842
RightLeg 127.432092 -0.000000 -0.000000
RightFoot -2.828965 6.445663 2.192820
RightToeBase -0.553122 -0.000000 0.000000
627
root 4.421810 37.456807 0.244760 7.043045 39.752944 -9.905240
Spine -3.980734 0.540793 7.989459
Head 5.419325 -11.485353 5.925690
LeftShoulder -4.111875 -9.651310 8.667774
LeftArm 1.892628 -14.388044 -58.551826
LeftForeArm 7.187744 0.000000 106.169039
LeftHand -14.597141 -0.000000 35.220787
LeftHandThumb1 -26.253704 0.000000 33.147579
RightShoulder -9.441175 -20.862561 1.214612
RightArm 14.187037 -25.123234 59.152718
RightForeArm 184.549336 -0.000000 27.667380
RightHand 0.920425 -0.000000 -0.714891
RightHandThumb1 -24.326973 -0.000000 -32.862282
LeftUpLeg -15.885299 -11.992563 7.755409
LeftLeg 8.328174 -0.000000 -0.000000
LeftFoot -8.267457 -17.349429 -10.952105
LeftToeBase 14.530293 -0.000000 -0.000000
RightUpLeg -36.578449 13.473192 -5.198735
RightLeg 127.568025 -0.000000 -0.000000
RightFoot -2.659975 6.657811 2.291418
RightToeBase -0.358698 -0.000000 0.000000
628
root 4.431073 37.453494 0.243455 7.120511 39.710845 -9.797809
Spine -3.962029 0.628187 7.861771
Head 5.397183 -11.441983 5.843641
LeftShoulder -4.111000 -9.652949 8.683413
LeftArm 1.883751 -14.363169 -58.530476
LeftForeArm 7.157348 -0.000000 106.236928
LeftHand -14.618361 -0.000000 35.440228
LeftHandThumb1 -26.253704 0.000000 33.147579
RightShoulder -9.324495 -20.781519 1.118682
RightArm 14.060060 -24.873831 59.389085
RightForeArm 184.334922 -0.000000 27.658451
RightHand 0.747840 -0.000000 -1.012243
RightHandThumb1 -24.326973 -0.000000 -32.862282
LeftUpLeg -15.814757 -12.011705 7.667758
LeftLeg 8.187377 -0.000000 -0.000000
LeftFoot -8.225659 -17.323842 -11.003469
LeftToeBase 14.619200 -0.000000 -0.000000
RightUpLeg -36.447961 13.379305 -5.142815
RightLeg 127.705160 -0.000000 -0.000000
RightFoot -2.515901 6.817550 2.407962
RightToeBase -0.284723 -0.000000 0.000000
629
root 4.441858 37.450181 0.241297 7.184456 39.654028 -9.683341
Spine -3.923583 0.748480 7.726996
Head 5.373470 -11.400850 5.786368
LeftShoulder -4.092197 -9.634888 8.695614
LeftArm 1.909808 -14.334256 -58.519101
LeftForeArm 7.159822 0.000000 106.303482
LeftHand -14.632316 0.000000 35.479536
LeftHandThumb1 -26.253704 0.000000 33.147579
RightShoulder -9.316888 -20.825454 1.110779
RightArm 14.161739 -24.877766 59.342688
RightForeArm 184.383352 -0.000000 27.671067
RightHand 0.752911 -0.000000 -0.903184
RightHandThumb1 -24.326973 -0.000000 -32.862282
LeftUpLeg -15.718763 -12.065968 7.574878
LeftLeg 8.036699 -0.000000 -0.000000
LeftFoot -8.176304 -17.253533 -11.037930
LeftToeBase 14.618393 -0.000000 -0.000000
RightUpLeg -36.312874 13.321081 -5.104378
RightLeg 127.817456 -0.000000 -0.000000
RightFoot -2.374081 6.984759 2.468641
RightToeBase 0.033678 -0.000000 -0.000000
